HIERARCHY
ROOT Hips
{
  OFFSET 3.13124 94.3669 -3.18751
  CHANNELS  6 Xposition Yposition Zposition Zrotation Xrotation Yrotation
  JOINT LeftUpLeg
  {
    OFFSET 8.64259 1.95398 -2.38835
    CHANNELS 3 Zrotation Xrotation Yrotation
    JOINT LeftLeg
    {
      OFFSET 43.7702 0 0
      CHANNELS 3 Zrotation Xrotation Yrotation
      JOINT LeftFoot
      {
        OFFSET 40.6238 0 0
        CHANNELS 3 Zrotation Xrotation Yrotation
        JOINT LeftToeBase
        {
          OFFSET 12.7242 0 0
          CHANNELS 3 Zrotation Xrotation Yrotation
          End Site
          {
            OFFSET 0 0 0
          }
        }
      }
    }
  }
  JOINT RightUpLeg
  {
    OFFSET -8.2249 1.95398 -2.59336
    CHANNELS 3 Zrotation Xrotation Yrotation
    JOINT RightLeg
    {
      OFFSET 43.5653 0 0
      CHANNELS 3 Zrotation Xrotation Yrotation
      JOINT RightFoot
      {
        OFFSET 40.6238 0 0
        CHANNELS 3 Zrotation Xrotation Yrotation
        JOINT RightToeBase
        {
          OFFSET 12.7242 0 0
          CHANNELS 3 Zrotation Xrotation Yrotation
          End Site
          {
            OFFSET 0 0 0
          }
        }
      }
    }
  }
  JOINT Spine
  {
    OFFSET 0.165834 0.87714 6.61349
    CHANNELS 3 Zrotation Xrotation Yrotation
    JOINT Spine1
    {
      OFFSET 7.38962 1.71661e-005 0
      CHANNELS 3 Zrotation Xrotation Yrotation
      JOINT Spine2
      {
        OFFSET 11.9445 1.14441e-005 0
        CHANNELS 3 Zrotation Xrotation Yrotation
        JOINT Spine3
        {
          OFFSET 14.7254 4.19617e-005 0
          CHANNELS 3 Zrotation Xrotation Yrotation
          JOINT Spine4
          {
            OFFSET 10.9679 0 0
            CHANNELS 3 Zrotation Xrotation Yrotation
            JOINT RightShoulder
            {
              OFFSET 2.46616 -1.6653 3.69651
              CHANNELS 3 Zrotation Xrotation Yrotation
              JOINT RightArm
              {
                OFFSET 13.0012 0 0
                CHANNELS 3 Zrotation Xrotation Yrotation
                JOINT RightForeArm
                {
                  OFFSET 28.7848 1.52588e-005 0
                  CHANNELS 3 Zrotation Xrotation Yrotation
                  JOINT RightHand
                  {
                    OFFSET 26.5688 1.52588e-005 0
                    CHANNELS 3 Zrotation Xrotation Yrotation
                    End Site
                    {
                      OFFSET 0 0 0
                    }
                  }
                }
              }
            }
            JOINT LeftShoulder
            {
              OFFSET 2.38034 -1.29275 -3.75231
              CHANNELS 3 Zrotation Xrotation Yrotation
              JOINT LeftArm
              {
                OFFSET 16.3182 6.10352e-005 0
                CHANNELS 3 Zrotation Xrotation Yrotation
                JOINT LeftForeArm
                {
                  OFFSET 27.0901 0 0
                  CHANNELS 3 Zrotation Xrotation Yrotation
                  JOINT LeftHand
                  {
                    OFFSET 24.5451 1.52588e-005 0
                    CHANNELS 3 Zrotation Xrotation Yrotation
                    End Site
                    {
                      OFFSET 0 0 0
                    }
                  }
                }
              }
            }
            JOINT Neck
            {
              OFFSET 5.0226 -0.0266342 0
              CHANNELS 3 Zrotation Xrotation Yrotation
              JOINT Head
              {
                OFFSET 6.69363 2.86102e-005 0
                CHANNELS 3 Zrotation Xrotation Yrotation
                End Site
                {
                  OFFSET 0 0 0
                }
              }
            }
          }
        }
      }
    }
  }
}
MOTION
Frames:	8
Frame Time:	0.0333333
-3.034 95.2958 -1.19609 -89.9941 82.1253 -90.229 -177.879 3.40331 93.7276 -9.52796 2.22374 0.143153 63.7793 1.57595 0.772172 28.7808 3.13643e-006 2.62337e-006 160.322 4.66119 89.5094 -11.4176 2.97991 -6.49735 67.112 -8.04311 20.8237 28.7808 1.12816e-005 1.91453e-005 -0.0175039 6.34052 -89.7761 14.1934 9.39499e-006 3.28851e-006 2.5225 -3.74776e-006 -9.03414e-006 -20.0126 0.00857469 1.08352e-005 3.71338e-007 0.00856732 -6.78498e-006 102.151 -18.2331 -82.1694 -5.1854 3.35686 -0.747085 -14.1894 -27.3653 -13.6027 2.84787 24.2114 -0.375449 -77.774 -21.1137 97.0474 13.111 12.6886 -3.03187 5.3635 -11.8861 -8.63879 -1.1303 -0.0255857 2.54503 1.75431 -0.000286276 0.000304523 -7.41136 -0.000228977 0.000133945 
-3.03177 95.2972 -1.21187 -89.9141 82.1409 -90.3201 -177.871 3.30835 93.7206 -9.33355 2.24127 0.143155 63.6923 1.59208 0.772178 28.7808 3.13643e-006 2.62337e-006 160.325 4.66182 89.5153 -11.374 3.10184 -6.53138 67.1329 -8.0525 20.957 28.7808 1.12816e-005 1.91453e-005 -0.0177659 6.34042 -89.773 14.1934 9.39499e-006 3.28851e-006 2.5225 -3.74776e-006 -9.03414e-006 -20.0126 0.00857469 1.08352e-005 3.71338e-007 0.00856732 -6.78498e-006 102.18 -18.2353 -82.1586 -5.40396 1.78283 -0.626774 -14.5493 -27.5341 -13.4976 2.79728 26.1112 -0.728661 -77.7521 -21.1116 97.0362 13.132 12.4463 -3.09962 5.36446 -11.58 -8.59434 -1.19003 -0.0255857 2.54518 1.85042 -0.0254926 0.0275035 -7.48647 -0.0216141 0.0170838 
-3.03039 95.2982 -1.22977 -89.857 82.1634 -90.3886 -177.867 3.245 93.7139 -9.21707 2.24067 0.143154 63.6266 1.58023 0.772174 28.7808 3.13643e-006 2.62337e-006 160.318 4.65965 89.4949 -11.404 2.9994 -6.50662 67.1375 -8.02765 20.879 28.7808 1.12816e-005 1.91453e-005 -0.0179581 6.34032 -89.7704 14.1934 9.39499e-006 3.28851e-006 2.5225 -3.74776e-006 -9.03414e-006 -20.0126 0.00857469 1.08352e-005 3.71338e-007 0.00856732 -6.78498e-006 102.205 -18.2488 -82.1513 -5.17622 3.54551 -0.841116 -14.301 -27.8255 -13.6445 2.97598 24.4183 -0.301649 -77.7319 -21.0981 97.0288 13.1124 12.3173 -3.13013 5.4084 -11.3505 -8.55885 -1.20746 -0.0255854 2.55837 1.99094 -0.00956981 0.0167735 -7.59217 -0.00216685 0.0305756 
-3.02789 95.2991 -1.24218 -89.7545 82.1648 -90.5035 -177.854 3.09947 93.7026 -8.90232 2.22783 0.143153 63.4715 1.57854 0.772232 28.7808 3.13643e-006 2.62337e-006 160.335 4.66 89.4981 -11.3689 3.01757 -6.52888 67.1055 -7.9356 20.9119 28.7808 1.12816e-005 1.91453e-005 -0.0186273 6.34004 -89.7629 14.1934 9.39368e-006 3.28654e-006 2.5225 -3.67404e-006 -8.92724e-006 -20.0126 0.00857469 1.0835e-005 3.71478e-007 0.00856732 -6.78495e-006 102.238 -18.2708 -82.1288 -5.17197 3.69384 -0.88674 -14.2548 -27.8085 -13.6526 2.64205 24.3942 -0.288225 -77.7149 -21.076 97.0062 13.0716 12.1157 -3.16208 5.46425 -11.108 -8.54323 -1.26208 -0.0255864 2.50853 2.12106 -0.0127522 -0.00237491 -7.67068 0.00743508 0.0956679 
-3.02752 95.3059 -1.26045 -89.7385 82.1795 -90.5387 -177.823 2.67467 93.6716 -8.04149 2.12802 0.143144 63.0509 1.60507 0.777123 28.7808 3.13643e-006 2.62337e-006 160.329 4.6565 89.4665 -11.3713 2.89691 -6.50596 67.1257 -7.99603 20.7936 28.7808 1.12816e-005 1.91453e-005 -0.0195794 6.33994 -89.752 14.1937 -0.000147721 -0.000155751 2.52275 -0.000156889 -0.000143322 -20.0124 0.00857469 -0.000172936 0.000255339 0.00856732 -0.000189754 102.246 -18.2975 -82.1337 -5.17934 3.75508 -0.930799 -14.2965 -27.9599 -13.6679 2.72966 24.512 -0.272765 -77.7029 -21.0494 97.0111 13.0373 11.9122 -3.21405 5.49453 -10.9739 -8.54592 -1.17771 -0.0255887 2.38827 2.27298 0.0124521 -0.0337993 -7.77687 0.0226164 0.104823 
-3.02144 95.3056 -1.2679 -89.72 82.1559 -90.5703 -177.812 2.58818 93.6708 -7.85825 2.20514 0.143151 62.9574 1.56856 0.752528 28.7808 3.13643e-006 2.62337e-006 160.332 4.65484 89.4522 -11.3775 2.82081 -6.49497 67.1025 -7.8805 20.7174 28.7808 1.12816e-005 1.91453e-005 -0.024328 6.32876 -89.7561 14.2161 -0.0133848 -0.0184794 2.54512 -0.0141767 -0.0178698 -19.99 0.00857469 -0.0217124 0.022627 0.00856731 -0.0217323 102.145 -18.2286 -82.1724 -5.13479 3.89715 -0.969205 -14.3141 -28.0457 -13.6829 2.50803 24.5484 -0.359378 -77.7784 -21.1182 97.0505 13.087 11.9352 -3.29667 5.47602 -10.9222 -8.52685 -1.2212 -0.025585 2.57696 2.3096 0.0392704 0.0358041 -7.8651 0.0223925 0.176198 
-3.0194 95.2991 -1.27932 -89.7786 82.1565 -90.5002 -177.842 2.91328 93.6857 -8.56349 2.23844 0.143154 63.3349 1.57553 0.765635 28.7808 3.13643e-006 2.62337e-006 160.35 4.65951 89.471 -11.4244 2.89478 -6.5142 67.1653 -7.94288 20.7499 28.7808 1.12816e-005 1.91453e-005 -0.0203713 6.32958 -89.7696 14.2144 -0.00940999 -0.0269404 2.54349 -0.0105555 -0.0264951 -19.9917 0.00857469 -0.028509 0.0209902 0.00856731 -0.0284993 102.149 -18.2311 -82.17 -5.08985 4.16763 -1.00647 -14.3485 -28.3355 -13.7489 2.44914 24.3792 -0.214011 -77.7755 -21.1158 97.048 13.1082 11.8755 -3.39514 5.5009 -10.712 -8.49212 -1.31848 -0.0256021 2.61079 2.62222 0.0608454 0.150344 -8.1298 0.0324563 0.0416064 
-3.0133 95.2985 -1.28627 -89.6267 82.1408 -90.6676 -177.853 2.94864 93.6711 -8.59974 2.13758 0.143145 63.3699 1.47788 0.710124 28.7808 3.13643e-006 2.62337e-006 160.353 4.69855 89.4487 -11.4903 2.68453 -6.47978 67.1584 -7.87751 20.525 28.7808 1.12816e-005 1.91453e-005 -0.0212929 6.32948 -89.7682 14.2146 -0.00985911 -0.0295559 2.54367 -0.0105865 -0.0290138 -19.9915 0.00857469 -0.031541 0.0211677 0.00856731 -0.0315531 102.149 -18.2311 -82.17 -4.98674 4.40453 -1.06244 -14.3382 -28.3651 -13.7673 2.38281 24.254 -0.189553 -77.7756 -21.1158 97.048 13.0894 11.6981 -3.44997 5.543 -10.5572 -8.49359 -1.35085 -0.0276772 2.63682 2.61859 0.0427178 -0.0012222 -8.03812 0.0298743 0.250453 
